<svg width="192" height="37" viewBox="0 0 192 37" fill="none" xmlns="http://www.w3.org/2000/svg">
<g id="Frame 1">
<rect width="192" height="37" fill="#0E8076"/>
<g id="simple-side-of-car-silhouette 1" clip-path="url(#clip0_2_2)">
<g id="layer1">
<path id="path3070-9-2" d="M24.8912 16.0014C24.9844 16.0026 25.0758 16.0044 25.1631 16.0071C27.9547 16.0948 33.3048 15.8325 35.5538 16.7962C35.5538 16.7962 41.0579 20.2108 42.996 21.6123C44.9349 23.0138 48.8895 23.0141 53.4646 23.5395C58.0393 24.0649 59.8027 25.6279 59.8027 25.6279C61.089 27.342 61.7755 28.5453 61.9945 30.8973C62.1161 31.5058 59.8142 32.4487 59.8235 34.3135H56.2572C56.2572 34.3135 55.8017 28.1411 50.8394 28.2285C45.8766 28.3161 45.6326 34.3135 45.6326 34.3135H18.4899C18.4899 34.3135 17.7963 28.3368 13.2964 28.1623C8.80193 27.987 7.94888 34.3135 7.94888 34.3135C7.94888 34.3135 3.91657 34.2216 2.59755 34.3135C1.22536 34.368 1.54875 32.3392 0.116759 31.859C-0.395884 27.4901 0.839504 27.9588 1.75734 23.9985C3.85258 23.2101 4.30085 23.3152 5.53841 22.8774C6.44493 22.5586 12.0043 18.7105 14.2301 17.6725C16.3808 16.6682 22.0032 15.9646 24.8909 16.0014H24.8912ZM13.0728 28.7634C13.6248 28.7476 14.1743 28.8426 14.6888 29.0426C15.2033 29.2426 15.6724 29.5436 16.0682 29.9278C16.4641 30.3119 16.7786 30.7715 16.9932 31.2791C17.2079 31.7868 17.3182 32.3323 17.3177 32.8833C17.3177 33.9755 16.8829 35.0229 16.1089 35.7952C15.3349 36.5675 14.2851 37.0014 13.1906 37.0014C12.096 37.0014 11.0462 36.5675 10.2722 35.7952C9.49823 35.0229 9.0634 33.9755 9.0634 32.8833C9.06246 31.8109 9.48084 30.7804 10.2296 30.011C10.9783 29.2416 11.9983 28.794 13.0726 28.7634H13.0728ZM50.7832 28.7652C51.335 28.7495 51.8844 28.8444 52.3988 29.0443C52.9132 29.2442 53.3821 29.545 53.778 29.929C54.1738 30.313 54.4883 30.7723 54.7031 31.2797C54.9178 31.7872 55.0283 32.3325 55.0281 32.8833C55.0281 33.9755 54.5933 35.0229 53.8193 35.7952C53.0453 36.5675 51.9955 37.0014 50.9009 37.0014C49.8064 37.0014 48.7566 36.5675 47.9826 35.7952C47.2086 35.0229 46.7738 33.9755 46.7738 32.8833C46.7733 31.8112 47.1919 30.7812 47.9406 30.0122C48.6893 29.2432 49.709 28.7958 50.783 28.7652H50.7832Z" fill="#E7F2F1"/>
</g>
</g>
<g id="simple-side-of-car-silhouette 2" clip-path="url(#clip1_2_2)">
<g id="layer1_2">
<path id="path3070-9-2_2" d="M89.8912 16.0014C89.9844 16.0026 90.0758 16.0044 90.1631 16.0071C92.9547 16.0948 98.3048 15.8325 100.554 16.7962C100.554 16.7962 106.058 20.2108 107.996 21.6123C109.935 23.0138 113.89 23.0141 118.465 23.5395C123.039 24.0649 124.803 25.6279 124.803 25.6279C126.089 27.342 126.775 28.5453 126.994 30.8973C127.116 31.5058 124.814 32.4487 124.824 34.3135H121.257C121.257 34.3135 120.802 28.1411 115.839 28.2285C110.877 28.3161 110.633 34.3135 110.633 34.3135H83.4899C83.4899 34.3135 82.7963 28.3368 78.2964 28.1623C73.8019 27.987 72.9489 34.3135 72.9489 34.3135C72.9489 34.3135 68.9166 34.2216 67.5976 34.3135C66.2254 34.368 66.5487 32.3392 65.1168 31.859C64.6041 27.4901 65.8395 27.9588 66.7573 23.9985C68.8526 23.2101 69.3008 23.3152 70.5384 22.8774C71.4449 22.5586 77.0043 18.7105 79.2301 17.6725C81.3808 16.6682 87.0032 15.9646 89.8909 16.0014H89.8912ZM78.0728 28.7634C78.6248 28.7476 79.1743 28.8426 79.6888 29.0426C80.2033 29.2426 80.6724 29.5436 81.0682 29.9278C81.4641 30.3119 81.7786 30.7715 81.9932 31.2791C82.2079 31.7868 82.3182 32.3323 82.3177 32.8833C82.3177 33.9755 81.8829 35.0229 81.1089 35.7952C80.3349 36.5675 79.2851 37.0014 78.1906 37.0014C77.096 37.0014 76.0462 36.5675 75.2722 35.7952C74.4982 35.0229 74.0634 33.9755 74.0634 32.8833C74.0625 31.8109 74.4808 30.7804 75.2296 30.011C75.9783 29.2416 76.9983 28.794 78.0726 28.7634H78.0728ZM115.783 28.7652C116.335 28.7495 116.884 28.8444 117.399 29.0443C117.913 29.2442 118.382 29.545 118.778 29.929C119.174 30.313 119.488 30.7723 119.703 31.2797C119.918 31.7872 120.028 32.3325 120.028 32.8833C120.028 33.9755 119.593 35.0229 118.819 35.7952C118.045 36.5675 116.996 37.0014 115.901 37.0014C114.806 37.0014 113.757 36.5675 112.983 35.7952C112.209 35.0229 111.774 33.9755 111.774 32.8833C111.773 31.8112 112.192 30.7812 112.941 30.0122C113.689 29.2432 114.709 28.7958 115.783 28.7652H115.783Z" fill="#E7F2F1"/>
</g>
</g>
<g id="simple-side-of-car-silhouette 3" clip-path="url(#clip2_2_2)">
<g id="layer1_3">
<path id="path3070-9-2_3" d="M154.891 16.0014C154.984 16.0026 155.076 16.0044 155.163 16.0071C157.955 16.0948 163.305 15.8325 165.554 16.7962C165.554 16.7962 171.058 20.2108 172.996 21.6123C174.935 23.0138 178.889 23.0141 183.465 23.5395C188.039 24.0649 189.803 25.6279 189.803 25.6279C191.089 27.342 191.775 28.5453 191.994 30.8973C192.116 31.5058 189.814 32.4487 189.824 34.3135H186.257C186.257 34.3135 185.802 28.1411 180.839 28.2285C175.877 28.3161 175.633 34.3135 175.633 34.3135H148.49C148.49 34.3135 147.796 28.3368 143.296 28.1623C138.802 27.987 137.949 34.3135 137.949 34.3135C137.949 34.3135 133.917 34.2216 132.598 34.3135C131.225 34.368 131.549 32.3392 130.117 31.859C129.604 27.4901 130.839 27.9588 131.757 23.9985C133.853 23.2101 134.301 23.3152 135.538 22.8774C136.445 22.5586 142.004 18.7105 144.23 17.6725C146.381 16.6682 152.003 15.9646 154.891 16.0014H154.891ZM143.073 28.7634C143.625 28.7476 144.174 28.8426 144.689 29.0426C145.203 29.2426 145.672 29.5436 146.068 29.9278C146.464 30.3119 146.779 30.7715 146.993 31.2791C147.208 31.7868 147.318 32.3323 147.318 32.8833C147.318 33.9755 146.883 35.0229 146.109 35.7952C145.335 36.5675 144.285 37.0014 143.191 37.0014C142.096 37.0014 141.046 36.5675 140.272 35.7952C139.498 35.0229 139.063 33.9755 139.063 32.8833C139.062 31.8109 139.481 30.7804 140.23 30.011C140.978 29.2416 141.998 28.794 143.073 28.7634H143.073ZM180.783 28.7652C181.335 28.7495 181.884 28.8444 182.399 29.0443C182.913 29.2442 183.382 29.545 183.778 29.929C184.174 30.313 184.488 30.7723 184.703 31.2797C184.918 31.7872 185.028 32.3325 185.028 32.8833C185.028 33.9755 184.593 35.0229 183.819 35.7952C183.045 36.5675 181.996 37.0014 180.901 37.0014C179.806 37.0014 178.757 36.5675 177.983 35.7952C177.209 35.0229 176.774 33.9755 176.774 32.8833C176.773 31.8112 177.192 30.7812 177.941 30.0122C178.689 29.2432 179.709 28.7958 180.783 28.7652H180.783Z" fill="#E7F2F1"/>
</g>
</g>
</g>
<defs>
<clipPath id="clip0_2_2">
<rect width="62" height="21" fill="white" transform="matrix(-1 0 0 1 62 16)"/>
</clipPath>
<clipPath id="clip1_2_2">
<rect width="62" height="21" fill="white" transform="matrix(-1 0 0 1 127 16)"/>
</clipPath>
<clipPath id="clip2_2_2">
<rect width="62" height="21" fill="white" transform="matrix(-1 0 0 1 192 16)"/>
</clipPath>
</defs>
</svg>
